<?xml version="1.0" standalone="yes"?>

<svg version="1.1" viewBox="0.0 0.0 443.8083989501312 410.65616797900265" fill="none" stroke="none" stroke-linecap="square" stroke-miterlimit="10" xmlns="http://www.w3.org/2000/svg" xmlns:xlink="http://www.w3.org/1999/xlink"><clipPath id="p.0"><path d="m0 0l443.8084 0l0 410.65616l-443.8084 0l0 -410.65616z" clip-rule="nonzero"></path></clipPath><g clip-path="url(#p.0)"><path fill="#000000" fill-opacity="0.0" d="m0 0l443.8084 0l0 410.65616l-443.8084 0z" fill-rule="nonzero"></path><path fill="#cfe2f3" d="m196.00656 134.17323l0 0c0 -3.4876556 2.827301 -6.3149643 6.3149567 -6.3149643l0 0c1.6748352 0 3.281067 0.66532135 4.4653625 1.8496017c1.1842804 1.1842957 1.8496094 2.7905273 1.8496094 4.4653625l0 0c0 3.4876556 -2.8273163 6.3149567 -6.314972 6.3149567l0 0c-3.4876556 0 -6.3149567 -2.827301 -6.3149567 -6.3149567z" fill-rule="nonzero"></path><path stroke="#000000" stroke-width="1.0" stroke-linejoin="round" stroke-linecap="butt" d="m196.00656 134.17323l0 0c0 -3.4876556 2.827301 -6.3149643 6.3149567 -6.3149643l0 0c1.6748352 0 3.281067 0.66532135 4.4653625 1.8496017c1.1842804 1.1842957 1.8496094 2.7905273 1.8496094 4.4653625l0 0c0 3.4876556 -2.8273163 6.3149567 -6.314972 6.3149567l0 0c-3.4876556 0 -6.3149567 -2.827301 -6.3149567 -6.3149567z" fill-rule="nonzero"></path><path fill="#cfe2f3" d="m112.00656 212.27821l0 0c0 -3.4876556 2.827301 -6.3149567 6.3149643 -6.3149567l0 0c1.6748276 0 3.281067 0.665329 4.4653473 1.8496094c1.184288 1.1842804 1.8496094 2.790512 1.8496094 4.4653473l0 0c0 3.4876556 -2.827301 6.3149567 -6.3149567 6.3149567l0 0c-3.4876633 0 -6.3149643 -2.827301 -6.3149643 -6.3149567z" fill-rule="nonzero"></path><path stroke="#000000" stroke-width="1.0" stroke-linejoin="round" stroke-linecap="butt" d="m112.00656 212.27821l0 0c0 -3.4876556 2.827301 -6.3149567 6.3149643 -6.3149567l0 0c1.6748276 0 3.281067 0.665329 4.4653473 1.8496094c1.184288 1.1842804 1.8496094 2.790512 1.8496094 4.4653473l0 0c0 3.4876556 -2.827301 6.3149567 -6.3149567 6.3149567l0 0c-3.4876633 0 -6.3149643 -2.827301 -6.3149643 -6.3149567z" fill-rule="nonzero"></path><path fill="#cfe2f3" d="m196.00656 212.27821l0 0c0 -3.4876556 2.827301 -6.3149567 6.3149567 -6.3149567l0 0c1.6748352 0 3.281067 0.665329 4.4653625 1.8496094c1.1842804 1.1842804 1.8496094 2.790512 1.8496094 4.4653473l0 0c0 3.4876556 -2.8273163 6.3149567 -6.314972 6.3149567l0 0c-3.4876556 0 -6.3149567 -2.827301 -6.3149567 -6.3149567z" fill-rule="nonzero"></path><path stroke="#000000" stroke-width="1.0" stroke-linejoin="round" stroke-linecap="butt" d="m196.00656 212.27821l0 0c0 -3.4876556 2.827301 -6.3149567 6.3149567 -6.3149567l0 0c1.6748352 0 3.281067 0.665329 4.4653625 1.8496094c1.1842804 1.1842804 1.8496094 2.790512 1.8496094 4.4653473l0 0c0 3.4876556 -2.8273163 6.3149567 -6.314972 6.3149567l0 0c-3.4876556 0 -6.3149567 -2.827301 -6.3149567 -6.3149567z" fill-rule="nonzero"></path><path fill="#cfe2f3" d="m280.00656 212.27821l0 0c0 -3.4876556 2.827301 -6.3149567 6.314972 -6.3149567l0 0c1.6748352 0 3.281067 0.665329 4.465332 1.8496094c1.1842957 1.1842804 1.8496094 2.790512 1.8496094 4.4653473l0 0c0 3.4876556 -2.827301 6.3149567 -6.3149414 6.3149567l0 0c-3.487671 0 -6.314972 -2.827301 -6.314972 -6.3149567z" fill-rule="nonzero"></path><path stroke="#000000" stroke-width="1.0" stroke-linejoin="round" stroke-linecap="butt" d="m280.00656 212.27821l0 0c0 -3.4876556 2.827301 -6.3149567 6.314972 -6.3149567l0 0c1.6748352 0 3.281067 0.665329 4.465332 1.8496094c1.1842957 1.1842804 1.8496094 2.790512 1.8496094 4.4653473l0 0c0 3.4876556 -2.827301 6.3149567 -6.3149414 6.3149567l0 0c-3.487671 0 -6.314972 -2.827301 -6.314972 -6.3149567z" fill-rule="nonzero"></path><path fill="#cfe2f3" d="m84.63648 309.11285l33.685043 -90.519684l33.685036 90.519684z" fill-rule="nonzero"></path><path stroke="#000000" stroke-width="1.0" stroke-linejoin="round" stroke-linecap="butt" d="m84.63648 309.11285l33.685043 -90.519684l33.685036 90.519684z" fill-rule="nonzero"></path><path fill="#cfe2f3" d="m168.63649 309.11285l33.685028 -90.519684l33.685043 90.519684z" fill-rule="nonzero"></path><path stroke="#000000" stroke-width="1.0" stroke-linejoin="round" stroke-linecap="butt" d="m168.63649 309.11285l33.685028 -90.519684l33.685043 90.519684z" fill-rule="nonzero"></path><path fill="#cfe2f3" d="m252.63649 309.11285l33.685043 -90.519684l33.685028 90.519684z" fill-rule="nonzero"></path><path stroke="#000000" stroke-width="1.0" stroke-linejoin="round" stroke-linecap="butt" d="m252.63649 309.11285l33.685043 -90.519684l33.685028 90.519684z" fill-rule="nonzero"></path><path fill="#000000" fill-opacity="0.0" d="m197.85617 138.63858l-75.055115 69.16536" fill-rule="nonzero"></path><path stroke="#000000" stroke-width="1.0" stroke-linejoin="round" stroke-linecap="butt" d="m197.85617 138.63858l-75.055115 69.16536" fill-rule="nonzero"></path><path fill="#000000" fill-opacity="0.0" d="m202.32152 140.48819l0 65.480316" fill-rule="nonzero"></path><path stroke="#000000" stroke-width="1.0" stroke-linejoin="round" stroke-linecap="butt" d="m202.32152 140.48819l0 65.480316" fill-rule="nonzero"></path><path fill="#000000" fill-opacity="0.0" d="m206.78688 138.63858l79.52754 67.33858" fill-rule="nonzero"></path><path stroke="#000000" stroke-width="1.0" stroke-linejoin="round" stroke-linecap="butt" d="m206.78688 138.63858l79.52754 67.33858" fill-rule="nonzero"></path><path fill="#000000" fill-opacity="0.0" d="m216.53412 101.543304l32.62993 0l0 30.771652l-32.62993 0z" fill-rule="nonzero"></path><path fill="#000000" d="m226.79974 128.4633l0 -13.59375l1.671875 0l0 7.75l3.953125 -4.015625l2.15625 0l-3.765625 3.65625l4.140625 6.203125l-2.0625 0l-3.25 -5.03125l-1.171875 1.125l0 3.90625l-1.671875 0z" fill-rule="nonzero"></path><path fill="#000000" fill-opacity="0.0" d="m130.32152 196.8924l43.59056 0l0 30.771652l-43.59056 0z" fill-rule="nonzero"></path><path fill="#000000" d="m147.00902 220.20302l1.640625 0.21875q-0.265625 1.6875 -1.375 2.65625q-1.109375 0.953125 -2.734375 0.953125q-2.015625 0 -3.25 -1.3125q-1.21875 -1.328125 -1.21875 -3.796875q0 -1.59375 0.515625 -2.78125q0.53125 -1.203125 1.609375 -1.796875q1.09375 -0.609375 2.359375 -0.609375q1.609375 0 2.625 0.8125q1.015625 0.8125 1.3125 2.3125l-1.625 0.25q-0.234375 -1.0 -0.828125 -1.5q-0.59375 -0.5 -1.421875 -0.5q-1.265625 0 -2.0625 0.90625q-0.78125 0.90625 -0.78125 2.859375q0 1.984375 0.765625 2.890625q0.765625 0.890625 1.984375 0.890625q0.984375 0 1.640625 -0.59375q0.65625 -0.609375 0.84375 -1.859375zm8.71875 3.609375l-1.671875 0l0 -10.640625q-0.59375 0.578125 -1.578125 1.15625q-0.984375 0.5625 -1.765625 0.859375l0 -1.625q1.40625 -0.65625 2.453125 -1.59375q1.046875 -0.9375 1.484375 -1.8125l1.078125 0l0 13.65625z" fill-rule="nonzero"></path><path fill="#000000" fill-opacity="0.0" d="m214.32477 196.8924l121.66928 0l0 30.771652l-121.66928 0z" fill-rule="nonzero"></path><path fill="#000000" d="m231.01227 220.20302l1.640625 0.21875q-0.265625 1.6875 -1.375 2.65625q-1.109375 0.953125 -2.734375 0.953125q-2.015625 0 -3.25 -1.3125q-1.21875 -1.328125 -1.21875 -3.796875q0 -1.59375 0.515625 -2.78125q0.53125 -1.203125 1.609375 -1.796875q1.09375 -0.609375 2.359375 -0.609375q1.609375 0 2.625 0.8125q1.015625 0.8125 1.3125 2.3125l-1.625 0.25q-0.234375 -1.0 -0.828125 -1.5q-0.59375 -0.5 -1.421875 -0.5q-1.265625 0 -2.0625 0.90625q-0.78125 0.90625 -0.78125 2.859375q0 1.984375 0.765625 2.890625q0.765625 0.890625 1.984375 0.890625q0.984375 0 1.640625 -0.59375q0.65625 -0.609375 0.84375 -1.859375zm11.203125 2.0l0 1.609375l-8.984375 0q-0.015625 -0.609375 0.1875 -1.15625q0.34375 -0.921875 1.09375 -1.8125q0.765625 -0.890625 2.1875 -2.0625q2.21875 -1.8125 3.0 -2.875q0.78125 -1.0625 0.78125 -2.015625q0 -0.984375 -0.71875 -1.671875q-0.703125 -0.6875 -1.84375 -0.6875q-1.203125 0 -1.9375 0.734375q-0.71875 0.71875 -0.71875 2.0l-1.71875 -0.171875q0.171875 -1.921875 1.328125 -2.921875q1.15625 -1.015625 3.09375 -1.015625q1.953125 0 3.09375 1.09375q1.140625 1.078125 1.140625 2.6875q0 0.8125 -0.34375 1.609375q-0.328125 0.78125 -1.109375 1.65625q-0.765625 0.859375 -2.5625 2.390625q-1.5 1.265625 -1.9375 1.71875q-0.421875 0.4375 -0.703125 0.890625l6.671875 0zm7.715271 1.609375l0 -1.90625l1.90625 0l0 1.90625l-1.90625 0zm5.183304 0l0 -1.90625l1.9062653 0l0 1.90625l-1.9062653 0zm5.183304 0l0 -1.90625l1.90625 0l0 1.90625l-1.90625 0z" fill-rule="nonzero"></path><path fill="#000000" fill-opacity="0.0" d="m302.95145 196.8924l56.22046 0l0 30.771652l-56.22046 0z" fill-rule="nonzero"></path><path fill="#000000" d="m319.63895 220.20302l1.640625 0.21875q-0.265625 1.6875 -1.375 2.65625q-1.109375 0.953125 -2.734375 0.953125q-2.015625 0 -3.25 -1.3125q-1.21875 -1.328125 -1.21875 -3.796875q0 -1.59375 0.515625 -2.78125q0.53125 -1.203125 1.609375 -1.796875q1.09375 -0.609375 2.359375 -0.609375q1.609375 0 2.625 0.8125q1.015625 0.8125 1.3125 2.3125l-1.625 0.25q-0.234375 -1.0 -0.828125 -1.5q-0.59375 -0.5 -1.421875 -0.5q-1.265625 0 -2.0625 0.90625q-0.78125 0.90625 -0.78125 2.859375q0 1.984375 0.765625 2.890625q0.765625 0.890625 1.984375 0.890625q0.984375 0 1.640625 -0.59375q0.65625 -0.609375 0.84375 -1.859375zm2.890625 3.609375l0 -9.859375l1.5 0l0 1.40625q1.09375 -1.625 3.140625 -1.625q0.890625 0 1.640625 0.328125q0.75 0.3125 1.109375 0.84375q0.375 0.515625 0.53125 1.21875q0.09375 0.46875 0.09375 1.625l0 6.0625l-1.671875 0l0 -6.0q0 -1.015625 -0.203125 -1.515625q-0.1875 -0.515625 -0.6875 -0.8125q-0.5 -0.296875 -1.171875 -0.296875q-1.0625 0 -1.84375 0.671875q-0.765625 0.671875 -0.765625 2.578125l0 5.375l-1.671875 0z" fill-rule="nonzero"></path></g></svg>

